# xmcd
#
# Track frame offsets:
#	150
#	47683
#	67965
#	82532
#	110480
#	132301
#	152766
#	174386
#	194255
#	214765
#	231954
#	261557
#	279623
#	303120
#
# Disc length: 4257 seconds
#
# Revision: 2
# Processed by: cddbd v1.5.2PL0 Copyright (c) Steve Scherf et al.
# Submitted via: EZCDAudioConverter 5.5.0.1
#
DISCID=bd109f0e
DTITLE=ZZ RECORDS - ZZ CLUB - SOMZÃO DAS GALERAS PARTE II [CD ZZ 10133)
DYEAR=1997
DGENRE=FUNK
TTITLE0=ZZ CLUB - FAIXA INTERATIVA CD-ROM (BY GILMAR SINISTRO)
TTITLE1=MC RIQUINHO and MC ANDINHO - RAP PEDREIRA E COLÚMBIA (BY GILMAR SINISTRO
TTITLE1=)
TTITLE2=MC RECREIO E MC MERENDA - RAP DE PARADA DE LUCAS (CARRO DA CARNE) (BY 
TTITLE2=GILMAR SINISTRO)
TTITLE3=MC MARQUINHOS and MC LOBÃO - RAP DO PILAR (BY GILMAR SINISTRO)
TTITLE4=MC BIGO and MC DUDU - RAP PARQUE UNIÃO (BY GILMAR SINISTRO)
TTITLE5=MC CACHORRINHO and MC ELIAS - RAP DE NOVA AURORA (BY GILMAR SINISTRO)
TTITLE6=MC CHICÃO and MC LUIZINHO - RAP FUNK COM LAZER (BY GILMAR SINISTRO)
TTITLE7=MC BICUDO and MC BORRACHA - RAP MARAVILHA (BY GILMAR SINISTRO)
TTITLE8=MC CACHORRINHO and MC ELIAS - RAP DA NOVA HOLANDA (BY GILMAR SINISTRO)
TTITLE9=MC DUNGA and MC MC NELCINHO - RAP DE JARDIM GRAMACHO (BY GILMAR SINISTRO
TTITLE9=)
TTITLE10=MC NEGUINHO and MC MAMÃO - RAP DE SANTA CRUZ DA SERRA (BY GILMAR SINIST
TTITLE10=RO)
TTITLE11=MC JAIR and MC FOQUINHA - MELÔ DE LA VERDADE (BY GILMAR SINISTRO)
TTITLE12=MC ISRAEL - RAP DE PARQUE MUISA (BY GILMAR SINISTRO)
TTITLE13=MC RILDO and MC ROLICA - RAP DO JARDIM DO IPÊ (BY GILMAR SINISTRO)
EXTD=
EXTT0=
EXTT1=
EXTT2=
EXTT3=
EXTT4=
EXTT5=
EXTT6=
EXTT7=
EXTT8=
EXTT9=
EXTT10=
EXTT11=
EXTT12=
EXTT13=
PLAYORDER=
